<svg width="304" height="304" xmlns="http://www.w3.org/2000/svg" xmlns:xlink="http://www.w3.org/1999/xlink" overflow="hidden"><g transform="translate(-488 -208)"><path d="M489 246.351C489 225.723 505.723 209 526.351 209L753.649 209C774.277 209 791 225.723 791 246.351L791 473.649C791 494.277 774.277 511 753.649 511L526.351 511C505.723 511 489 494.277 489 473.649Z" fill="#FFFFFF" fill-rule="evenodd"/><g><g><g><path d="M715.519 351.26 710.125 349.102C684.774 406.144 583.923 371.465 577.855 388.434 576.843 399.897 632.929 390.614 673.025 392.557 685.252 393.149 691.383 402.379 686.192 417.423L696.418 417.455C708.214 380.68 745.862 399.448 747.435 387.311 744.85 379.331 704.168 387.311 715.519 351.26Z" fill="#FFFFFF"/><path d="M689.087 411.135C690.705 405.741 690.166 400.347 687.469 397.11 684.772 393.873 680.996 391.716 676.141 391.177L582.282 390.097C581.743 390.097 581.203 389.558 580.664 389.558 580.125 389.019 580.125 388.479 580.664 387.94 581.203 386.862 581.743 386.321 582.821 386.321L677.22 385.243C688.548 384.703 700.415 375.533 704.73 364.745L710.125 350.721C710.125 350.18 710.664 349.641 710.125 349.102 704.191 321.591 679.378 301.093 650.249 301.093 623.278 301.093 600.083 318.355 591.991 342.629 586.597 338.853 580.125 336.695 572.573 337.235 559.626 338.314 549.378 349.102 547.759 362.048 547.22 365.285 547.759 368.521 548.299 371.757 527.262 372.296 510 389.558 510 411.135 510 413.292 510 414.911 510.539 417.068 510.539 418.148 511.618 418.687 512.158 418.687L685.311 418.687C686.39 418.687 687.469 418.148 687.469 417.068L689.087 411.135Z" fill="#F4811F"/><path d="M718.755 350.72 716.058 350.72C715.518 350.72 714.979 351.259 714.44 351.799L710.664 364.745C709.046 370.139 709.585 375.534 712.283 378.77 714.979 382.006 718.755 384.164 723.61 384.704L743.569 385.782C744.108 385.782 744.648 386.322 745.187 386.322 745.726 386.861 745.726 387.4 745.187 387.94 744.648 389.019 744.108 389.559 743.029 389.559L722.531 390.637C711.203 391.176 699.336 400.346 695.021 411.134L693.941 415.99C693.402 416.529 693.941 417.608 695.021 417.608L766.224 417.608C767.303 417.608 767.842 417.069 767.842 415.99 768.921 411.675 770 406.82 770 401.964 770 373.915 746.805 350.72 718.755 350.72" fill="#FAAD3F"/></g></g></g></g></svg>