<svg width="800" height="800" viewBox="0 0 73 73" xmlns="http://www.w3.org/2000/svg" xmlns:xlink="http://www.w3.org/1999/xlink" overflow="hidden"><defs></defs><g id="team-collaboration/version-control/github" fill="none" fill-rule="evenodd"><g id="container" fill-rule="nonzero" transform="translate(2 2)"><rect x="-1" y="-1" rx="14" width="71" height="71" id="mask" stroke="#000000" stroke-width="2" fill="#000000"/><path d="M58.3067 21.4282C55.8957 17.2972 52.6254 14.0267 48.4948 11.616 44.3636 9.20513 39.8536 8 34.9615 8 30.07 8 25.5585 9.2055 21.4282 11.616 17.2972 14.0266 14.027 17.2972 11.616 21.4282 9.20537 25.559 8 30.0699 8 34.9608 8 40.8358 9.71406 46.1187 13.143 50.811 16.5716 55.5036 21.0009 58.7507 26.4304 60.5527 27.0624 60.67 27.5303 60.5875 27.8345 60.3073 28.1388 60.0267 28.2908 59.6753 28.2908 59.2545 28.2908 59.1843 28.2848 58.5527 28.2731 57.3588 28.261 56.165 28.2554 55.1236 28.2554 54.2349L27.4479 54.3746C26.9331 54.4689 26.2836 54.5089 25.4995 54.4976 24.7158 54.4866 23.9021 54.4045 23.0597 54.2518 22.217 54.1004 21.4331 53.7494 20.7075 53.1994 19.9823 52.6494 19.4675 51.9294 19.1631 51.0407L18.8121 50.2328C18.5781 49.695 18.2097 49.0975 17.7064 48.4427 17.2032 47.7872 16.6942 47.3428 16.1794 47.1088L15.9336 46.9328C15.7698 46.8159 15.6178 46.6749 15.4773 46.5112 15.3369 46.3476 15.2318 46.1838 15.1615 46.0197 15.0912 45.8556 15.1495 45.721 15.337 45.6153 15.5245 45.5097 15.8634 45.4584 16.3551 45.4584L17.057 45.5633C17.5251 45.6571 18.1041 45.9374 18.7948 46.4057 19.485 46.8737 20.0525 47.4821 20.4973 48.2307 21.0358 49.1905 21.6847 49.9219 22.4457 50.4251 23.2061 50.9284 23.9727 51.1796 24.7449 51.1796 25.5171 51.1796 26.184 51.1211 26.7459 51.0047 27.3073 50.8876 27.8339 50.7116 28.3256 50.4778 28.5362 48.909 29.1097 47.7039 30.0456 46.8615 28.7117 46.7214 27.5125 46.5102 26.4473 46.2295 25.3827 45.9484 24.2826 45.4922 23.1476 44.8597 22.0121 44.2281 21.0701 43.4437 20.3214 42.508 19.5726 41.5718 18.958 40.3427 18.4786 38.8218 17.999 37.3003 17.7591 35.5452 17.7591 33.5559 17.7591 30.7236 18.6837 28.3133 20.5327 26.3238 19.6665 24.1944 19.7483 21.8073 20.7782 19.1626 21.457 18.9518 22.4635 19.11 23.7974 19.6364 25.1315 20.163 26.1083 20.6142 26.7287 20.9882 27.3492 21.3622 27.8463 21.679 28.2208 21.936 30.3978 21.3277 32.6444 21.0235 34.9612 21.0235 37.278 21.0235 39.5251 21.3277 41.7023 21.936L43.0363 21.0939C43.9485 20.5319 45.0257 20.017 46.2654 19.5489 47.5058 19.081 48.4543 18.9521 49.11 19.163 50.1627 21.8078 50.2566 24.1948 49.3902 26.3242 51.239 28.3137 52.164 30.7245 52.164 33.5563 52.164 35.5455 51.9233 37.3062 51.4444 38.8394 50.9648 40.3728 50.345 41.6007 49.5846 42.5256 48.8233 43.4504 47.8753 44.2286 46.7404 44.8601 45.6052 45.4921 44.5048 45.9483 43.4402 46.2294 42.3751 46.5105 41.1759 46.7217 39.842 46.8621 41.0586 47.9149 41.667 49.5767 41.667 51.8468L41.667 59.2535C41.667 59.6743 41.8133 60.0256 42.1062 60.3063 42.3987 60.5865 42.8607 60.669 43.4927 60.5516 48.9229 58.7499 53.3522 55.5026 56.7807 50.81 60.2088 46.1177 61.9235 40.8348 61.9235 34.9598 61.9222 30.0695 60.7163 25.559 58.3067 21.4282Z" id="Shape" fill="#FFFFFF"/></g></g></svg>