<svg width="304" height="304" xmlns="http://www.w3.org/2000/svg" xmlns:xlink="http://www.w3.org/1999/xlink" overflow="hidden"><g transform="translate(-488 -208)"><path d="M489 246.351C489 225.723 505.723 209 526.351 209L753.649 209C774.277 209 791 225.723 791 246.351L791 473.649C791 494.277 774.277 511 753.649 511L526.351 511C505.723 511 489 494.277 489 473.649Z" fill="#FFFFFF" fill-rule="evenodd"/><g><g><g><path d="M585.282 433.286 582.923 433.286 571.184 421.547 571.184 419.189 589.118 401.254 601.544 401.254 603.198 402.909 603.198 415.334 585.264 433.269Z" fill="#05BDBA"/><path d="M571.184 300.547 571.184 298.189 582.923 286.45 585.282 286.45 603.216 304.384 603.216 316.81 601.562 318.464 589.136 318.464 571.202 300.53Z" fill="#05BDBA"/><path d="M674.496 395.446 657.424 395.446 655.998 394.021 655.998 354.051C655.998 346.941 653.2 341.432 644.629 341.238 640.211 341.115 635.16 341.238 629.774 341.45L628.965 342.277 628.965 394.003 627.539 395.429 610.467 395.429 609.042 394.003 609.042 325.733 610.467 324.307 648.888 324.307C663.813 324.307 675.922 336.416 675.922 351.341L675.922 394.021 674.496 395.446Z" fill="#014847"/><path d="M587.71 369.856 519.422 369.856 517.997 368.43 517.997 351.323 519.422 349.898 587.71 349.898 589.136 351.323 589.136 368.43 587.71 369.856Z" fill="#05BDBA"/><path d="M765.558 369.856 697.27 369.856 695.845 368.43 695.845 351.323 697.27 349.898 765.558 349.898 766.984 351.323 766.984 368.43 765.558 369.856Z" fill="#05BDBA"/><path d="M632.643 302.976 632.643 251.76 634.069 250.334 651.176 250.334 652.602 251.76 652.602 302.976 651.176 304.402 634.069 304.402 632.643 302.976Z" fill="#05BDBA"/><path d="M632.643 467.994 632.643 416.778 634.069 415.352 651.176 415.352 652.602 416.778 652.602 467.994 651.176 469.419 634.069 469.419 632.643 467.994Z" fill="#05BDBA"/></g></g></g></g></svg>