<svg width="304" height="304" xmlns="http://www.w3.org/2000/svg" xmlns:xlink="http://www.w3.org/1999/xlink" overflow="hidden"><g transform="translate(-488 -208)"><g><g><g><path d="M641.883 417.442C606.1 417.442 574.083 404.258 557.133 385.425 563.725 402.375 575.025 417.442 590.092 427.8 605.158 438.158 623.05 443.808 641.883 443.808 660.717 443.808 678.608 438.158 693.675 427.8 708.742 417.442 720.042 402.375 726.633 385.425 709.683 404.258 677.667 417.442 641.883 417.442ZM641.883 293.142C677.667 293.142 709.683 306.325 726.633 325.158 720.042 308.208 708.742 293.142 693.675 282.783 677.667 271.483 659.775 265.833 641.883 265.833 623.05 265.833 605.158 271.483 590.092 281.842 575.025 293.142 563.725 307.267 557.133 325.158 574.083 305.383 605.158 293.142 641.883 293.142ZM707.8 247.942C700.519 247.942 694.617 253.844 694.617 261.125 694.617 268.406 700.519 274.308 707.8 274.308 715.081 274.308 720.983 268.406 720.983 261.125 720.983 253.844 715.081 247.942 707.8 247.942ZM575.025 438.158C565.664 438.158 558.075 445.747 558.075 455.108 558.075 464.47 565.664 472.058 575.025 472.058 584.386 472.058 591.975 464.47 591.975 455.108 591.975 445.747 584.386 438.158 575.025 438.158ZM560.9 268.658C555.699 268.658 551.483 272.874 551.483 278.075 551.483 283.276 555.699 287.492 560.9 287.492 566.101 287.492 570.317 283.276 570.317 278.075 570.317 272.874 566.101 268.658 560.9 268.658Z"/></g></g></g></g></svg>