<svg width="304" height="304" xmlns="http://www.w3.org/2000/svg" xmlns:xlink="http://www.w3.org/1999/xlink" overflow="hidden"><g transform="translate(-488 -208)"><g><g><g><path d="M527 247 753 247 753 473 527 473Z" fill="#323330"/><path d="M50.6071 176.894C50.1951 177.306 50.0921 178.13 50.6071 178.645 57.199 185.134 66.4688 188.842 75.8416 188.842 91.4972 188.842 101.385 179.366 101.385 167.624 101.385 157.221 95.1022 151.659 86.9653 148.158L77.7985 144.347C72.0307 141.978 67.9108 140.33 67.9108 136.107 67.9108 132.09 71.1037 129.515 77.1806 129.515 82.6394 129.515 86.7594 131.472 90.9823 134.974 91.6003 135.489 92.4242 135.283 92.8362 134.768L98.9131 127.146C99.3251 126.734 99.3251 125.91 98.8101 125.395 93.3512 119.936 85.3174 116.537 77.1806 116.537 63.4818 116.537 53.2851 125.189 53.2851 136.725 53.2851 147.334 60.8039 152.895 67.6018 155.779L76.8716 159.796C83.1544 162.474 86.5534 163.916 86.5534 168.551 86.5534 172.877 83.3604 175.967 76.0476 175.967 70.2797 175.967 64.0998 172.98 59.4649 168.654 58.847 168.139 58.023 168.242 57.611 168.757Z" fill="#FFFFFF" transform="matrix(1 0 0 1.00119 515.585 267.601)"/><path d="M105.093 176.894C104.681 177.306 104.578 178.13 105.093 178.645 111.685 185.134 120.954 188.842 130.327 188.842 145.983 188.842 155.871 179.366 155.871 167.624 155.871 157.221 149.588 151.659 141.451 148.158L132.284 144.347C126.516 141.978 122.396 140.33 122.396 136.107 122.396 132.09 125.589 129.515 131.666 129.515 137.125 129.515 141.245 131.472 145.468 134.974 146.086 135.489 146.91 135.283 147.322 134.768L153.399 127.146C153.811 126.734 153.811 125.91 153.296 125.395 147.837 119.936 139.803 116.537 131.666 116.537 117.967 116.537 107.771 125.189 107.771 136.725 107.771 147.334 115.289 152.895 122.087 155.779L131.357 159.796C137.64 162.474 141.039 163.916 141.039 168.551 141.039 172.877 137.846 175.967 130.533 175.967 124.765 175.967 118.585 172.98 113.951 168.654 113.333 168.139 112.509 168.242 112.097 168.757Z" fill="#FFFFFF" transform="matrix(1 0 0 1.00119 515.585 267.601)"/><path d="M165.449 186.37C165.449 186.885 165.964 187.606 166.788 187.606L178.736 187.606C179.251 187.606 179.972 187.194 179.972 186.37L179.972 157.736 204.794 157.736 204.794 186.37C204.794 186.885 205.206 187.606 206.03 187.606L217.978 187.606C218.493 187.606 219.317 187.194 219.317 186.37L219.317 119.009C219.317 118.494 218.802 117.773 217.978 117.773L206.03 117.773C205.515 117.773 204.794 118.185 204.794 119.009L204.794 144.759 179.972 144.759 179.972 119.009C179.972 118.494 179.56 117.773 178.736 117.773L166.788 117.773C166.273 117.773 165.449 118.185 165.449 119.009Z" fill="#FFFFFF" transform="matrix(1 0 0 1.00119 515.585 267.601)"/></g></g></g></g></svg>